<svg width="102" height="100" viewBox="0 0 102 100" fill="none" xmlns="http://www.w3.org/2000/svg">
<path d="M14.1369 41.8863H29.9926C30.3953 41.8863 30.5967 42.0876 30.5967 42.4903V44.4534C30.5967 44.8561 30.3953 45.0575 29.9926 45.0575H14.1369L14.1871 61.8694C14.1871 62.2723 13.9859 62.4736 13.5832 62.4736H11.1167C10.714 62.4736 10.5127 62.2723 10.5127 61.8694L10.6638 26.6848C10.6638 26.2821 10.865 26.0809 11.2677 26.0809H32.7611C33.1637 26.0809 33.3652 26.2821 33.3652 26.6848V28.5977C33.3652 29.0004 33.1637 29.2017 32.7611 29.2017H14.0866L14.1369 41.8863Z" fill="#2372A6"/>
<path d="M39.0699 46.4373H45.0618V40.3003H53.8764V46.4373H58.4818V54.0834H53.8764V61.4023H44.9379V54.0834H28.7202V47.7954L38.5499 27.2466H48.8253L39.0699 46.4373Z" stroke="#2372A6" strokeWidth="1.01737" strokeMiterlimit="10"/>
<path d="M85.2195 30.9751C85.5018 31.3559 85.394 31.6589 84.9731 31.8038L83.0096 32.4805C82.6822 32.5934 82.4477 32.5148 82.2127 32.2771C78.7349 29.0127 74.2824 27.8377 69.6539 29.4329C62.5005 31.8983 59.2528 39.2336 62.2546 48.2938C65.2562 57.354 72.3273 61.5582 79.7144 59.0122C84.8573 57.2397 87.5101 53.2972 87.8635 48.0747C87.909 47.7404 88.0486 47.5329 88.3759 47.4202L90.3396 46.7435C90.7135 46.6145 90.9797 46.7885 90.9816 47.2658C90.8973 53.458 87.6603 59.5677 80.4134 62.0654C71.2497 65.2236 62.5825 59.9755 59.1541 49.6279C55.6627 39.0897 59.9003 29.5533 68.8772 26.4596C75.0486 24.3325 81.1262 26.0102 85.2195 30.9751Z" fill="#2372A6"/>
<path d="M31.1754 71.4614H32.3698V70.2382H34.1265V71.4614H35.0445V72.9855H34.1265V74.4443H32.345V72.9855H29.1125V71.7322L31.0718 67.6363H33.1199L31.1754 71.4614Z" stroke="#2372A6" strokeWidth="0.381515" strokeMiterlimit="10"/>
<path d="M8.52683 71.0619H6.2258V73.7402H5.58203V68.2651H8.52683V68.8423H6.2258V70.4996H8.52683V71.0619Z" fill="#2372A6"/>
<path d="M10.5356 73.7559H9.89185V68.2807H10.5356V73.7559Z" fill="#2372A6"/>
<path d="M14.2532 68.9586C14.1892 68.934 14.1212 68.9131 14.0498 68.8958C13.9783 68.8786 13.9129 68.87 13.8537 68.87H12.8105V70.7049H14.0312C14.268 70.7049 14.4516 70.6224 14.5825 70.457C14.7131 70.2919 14.7786 70.0908 14.7786 69.8539C14.7786 69.6568 14.7342 69.4767 14.6454 69.3139C14.5566 69.1511 14.4258 69.0326 14.2532 68.9586ZM15.757 73.7739L14.8674 73.7754L12.8105 70.9786V73.7754H12.1223V68.3002L14.1496 68.3223C14.5393 68.3223 14.8587 68.4704 15.1079 68.7664C15.3568 69.0622 15.4814 69.4052 15.4814 69.7948C15.4814 70.0019 15.4458 70.1944 15.3743 70.3719C15.3029 70.5494 15.1857 70.7123 15.0232 70.8603C14.8409 71.0082 14.6413 71.1143 14.4245 71.1783L13.7003 71.177L15.757 73.7739Z" fill="#2372A6"/>
<path d="M19.9964 69.2347L19.412 69.5083C19.3576 69.2816 19.227 69.0977 19.0197 68.9571C18.8126 68.8165 18.5856 68.7463 18.339 68.7463C18.1565 68.7463 17.9962 68.7822 17.8582 68.8535C17.72 68.9252 17.6065 69.0423 17.5177 69.2051C17.4585 69.3382 17.4289 69.474 17.4289 69.6119C17.4289 69.9425 17.5844 70.1916 17.8951 70.3593L19.3009 70.8772C19.5573 71.0199 19.7534 71.213 19.8891 71.4566C20.0247 71.7002 20.0927 71.9598 20.0927 72.2353C20.0927 72.4714 20.0446 72.6978 19.9483 72.9141C19.8522 73.1307 19.7078 73.3227 19.5154 73.4899C19.1702 73.7311 18.783 73.8516 18.3539 73.8516C17.9691 73.8516 17.6164 73.7554 17.2957 73.563C17.1231 73.4348 16.9912 73.2906 16.8999 73.1301C16.8086 72.97 16.7261 72.7614 16.6521 72.5048L17.2515 72.2016C17.2515 72.5123 17.3624 72.7714 17.5844 72.9785C17.8063 73.1857 18.0677 73.2893 18.3687 73.2893C18.487 73.2893 18.6042 73.2708 18.7201 73.234C18.8359 73.1972 18.9495 73.137 19.0604 73.0535C19.1715 72.97 19.2603 72.857 19.3268 72.7142C19.3934 72.5718 19.4266 72.4219 19.4266 72.2646C19.4266 72.0287 19.3736 71.8545 19.2676 71.7413C19.1615 71.6283 19.0777 71.552 19.0161 71.5129C18.9543 71.4734 18.8299 71.412 18.6425 71.3285L17.6955 70.9954C17.4143 70.8621 17.1874 70.6809 17.0146 70.4517C16.8419 70.2223 16.7557 69.9621 16.7557 69.6711C16.7557 69.5971 16.7742 69.4627 16.8112 69.2678C16.8482 69.0729 16.9653 68.867 17.1627 68.6501C17.3599 68.4331 17.5756 68.3012 17.8101 68.2543C18.0443 68.2074 18.2527 68.184 18.4352 68.184C18.5141 68.184 18.5758 68.1866 18.6202 68.1914C18.6646 68.1963 18.7793 68.2174 18.9643 68.2543C19.1492 68.2914 19.3465 68.3985 19.5562 68.5761C19.7657 68.7537 19.9124 68.9733 19.9964 69.2347Z" fill="#2372A6"/>
<path d="M24.9274 68.8382H23.3515V73.7363H22.6708V68.8382H21.0947V68.2612H24.9274V68.8382Z" fill="#2372A6"/>
<path d="M43.7057 73.4722C43.4493 73.5807 43.189 73.6645 42.9251 73.7238C42.6613 73.7829 42.3936 73.8125 42.1223 73.8125C41.7425 73.8125 41.3799 73.7508 41.0347 73.6277C40.6894 73.5043 40.3736 73.3167 40.0877 73.0653C39.5055 72.4734 39.2146 71.7754 39.2146 70.9715C39.2146 70.4486 39.3293 69.9997 39.5587 69.6247C39.788 69.25 40.0124 68.9626 40.2319 68.7627C40.4513 68.563 40.6611 68.4225 40.8609 68.341C41.0606 68.2597 41.2234 68.2043 41.3492 68.1747C41.4749 68.1449 41.6031 68.1228 41.7338 68.108C41.8646 68.0932 41.9916 68.0857 42.115 68.0857C42.2974 68.0857 42.4899 68.102 42.6921 68.1338C42.8943 68.166 43.0965 68.2116 43.2988 68.2708L43.7057 68.4557V69.1808C43.247 68.8552 42.744 68.6925 42.1963 68.6925C41.8265 68.6925 41.481 68.7677 41.1606 68.9182C40.8398 69.0687 40.5637 69.2991 40.3319 69.6101C40.1986 69.8073 40.0962 70.0218 40.0247 70.2537C39.9532 70.4855 39.9174 70.7223 39.9174 70.964C39.9174 71.3832 40.0222 71.7767 40.2319 72.1441C40.4416 72.5116 40.7302 72.7877 41.0977 72.9728C41.4649 73.1577 41.8386 73.2502 42.2186 73.2502C42.6279 73.2502 42.9954 73.1492 43.3211 72.9469L43.7057 72.7027V73.4722Z" fill="#2372A6"/>
<path d="M50.0747 70.8256C50.0747 70.1981 49.8477 69.667 49.394 69.2321C48.9401 68.7974 48.3951 68.58 47.7589 68.58C47.1324 68.58 46.602 68.8074 46.1681 69.2618C45.7339 69.7164 45.5169 70.2623 45.5169 70.8998C45.5169 71.5273 45.7426 72.057 46.1939 72.4893C46.6453 72.9218 47.1916 73.1376 47.8329 73.1376C48.4592 73.1376 48.9895 72.9106 49.4236 72.4561C49.8575 72.0013 50.0747 71.4579 50.0747 70.8256ZM50.7554 70.8404C50.7554 71.6504 50.4705 72.3406 49.9009 72.9109C49.3311 73.4814 48.6418 73.7666 47.8329 73.7666C47.014 73.7666 46.3098 73.4914 45.7204 72.9407C45.1309 72.39 44.8362 71.7145 44.8362 70.9143C44.8362 70.1045 45.1211 69.4142 45.6908 68.8439C46.2606 68.2734 46.9498 67.9881 47.7589 67.9881C48.5776 67.9881 49.2817 68.2636 49.8711 68.814C50.4605 69.3649 50.7554 70.0403 50.7554 70.8404Z" fill="#2372A6"/>
<path d="M56.4488 68.1831L56.434 71.9122C56.434 72.2377 56.3427 72.5498 56.1603 72.8482C55.9777 73.1467 55.741 73.3722 55.4501 73.5251C55.0455 73.7075 54.6261 73.7988 54.1923 73.7988C53.7581 73.7988 53.3683 73.7027 53.0232 73.5104C52.6779 73.318 52.4484 73.0923 52.3352 72.8333C52.2214 72.5745 52.1488 72.3784 52.1167 72.2452C52.0847 72.112 52.0686 71.9911 52.0686 71.8826V68.1831H52.7272V71.8826C52.7616 72.1391 52.8356 72.3697 52.9492 72.5745C53.0626 72.779 53.2254 72.9332 53.4375 73.0368C53.7137 73.1552 53.9924 73.2144 54.2735 73.2144C54.4955 73.2144 54.7001 73.1787 54.8877 73.1071C55.0751 73.0356 55.2342 72.9259 55.365 72.7779C55.4955 72.63 55.5968 72.4832 55.6683 72.3376C55.7397 72.1921 55.7756 72.0404 55.7756 71.8826V71.8234V68.1831H56.4488Z" fill="#2372A6"/>
<path d="M62.7435 73.835H62.6103L58.6148 69.4401V73.7166H58.0007V68.1082L58.1549 68.1093L62.1145 72.5089V68.2414H62.7435V73.835Z" fill="#2372A6"/>
<path d="M67.4883 69.1956L66.9038 69.4692C66.8495 69.2425 66.7188 69.0586 66.5116 68.9181C66.3044 68.7774 66.0775 68.7072 65.8309 68.7072C65.6483 68.7072 65.4881 68.7431 65.35 68.8145C65.2119 68.8861 65.0983 69.0032 65.0097 69.166C64.9505 69.2991 64.9207 69.4349 64.9207 69.5728C64.9207 69.9034 65.0762 70.1526 65.387 70.3202L66.7928 70.8381C67.0493 70.9808 67.2454 71.174 67.3811 71.4175C67.5166 71.6611 67.5845 71.9208 67.5845 72.1963C67.5845 72.4323 67.5364 72.6588 67.4403 72.8751C67.3441 73.0917 67.1996 73.2836 67.0074 73.4508C66.662 73.692 66.2749 73.8125 65.8457 73.8125C65.461 73.8125 65.1083 73.7164 64.7877 73.524C64.615 73.3957 64.483 73.2515 64.3918 73.0911C64.3006 72.9309 64.218 72.7224 64.144 72.4658L64.7434 72.1626C64.7434 72.4732 64.8542 72.7323 65.0762 72.9394C65.2982 73.1466 65.5597 73.2502 65.8605 73.2502C65.9789 73.2502 66.096 73.2317 66.2119 73.195C66.3278 73.1582 66.4413 73.098 66.5522 73.0144C66.6633 72.9309 66.7521 72.8179 66.8188 72.6752C66.8853 72.5327 66.9186 72.3828 66.9186 72.2256C66.9186 71.9896 66.8655 71.8154 66.7594 71.7023C66.6535 71.5893 66.5695 71.5129 66.5079 71.4738C66.4462 71.4344 66.3217 71.373 66.1343 71.2895L65.1873 70.9564C64.9062 70.823 64.6792 70.6419 64.5064 70.4127C64.3338 70.1832 64.2476 69.9231 64.2476 69.632C64.2476 69.558 64.2661 69.4237 64.303 69.2288C64.3401 69.0338 64.4571 68.828 64.6545 68.6111C64.8517 68.394 65.0676 68.2621 65.3019 68.2153C65.5362 68.1684 65.7446 68.1449 65.9272 68.1449C66.006 68.1449 66.0677 68.1476 66.112 68.1524C66.1564 68.1572 66.2711 68.1783 66.4561 68.2153C66.6412 68.2523 66.8383 68.3595 67.048 68.5371C67.2577 68.7147 67.4044 68.9342 67.4883 69.1956Z" fill="#2372A6"/>
<path d="M71.834 73.7168H68.8596V68.2416H71.834V68.8335H69.518V70.4538H71.834V71.0161H69.518V73.1249H71.834V73.7168Z" fill="#2372A6"/>
<path d="M76.1841 73.7363H73.4834V68.2612H74.1642V73.1444H76.1841V73.7363Z" fill="#2372A6"/>
<path d="M80.4848 73.7363H77.7842V68.2612H78.465V73.1444H80.4848V73.7363Z" fill="#2372A6"/>
<path d="M82.7905 73.7168H82.1467V68.2416H82.7905V73.7168Z" fill="#2372A6"/>
<path d="M89.2518 73.8545H89.1186L85.1231 69.4596V73.7361H84.509V68.1277L84.6632 68.1289L88.6228 72.5284V68.2609H89.2518V73.8545Z" fill="#2372A6"/>
<path d="M96.4179 70.888C96.4179 71.4046 96.3339 71.8659 96.1663 72.2717C95.9987 72.6777 95.7249 73.0281 95.3451 73.3233C95.1083 73.476 94.8493 73.5892 94.5681 73.6629C94.287 73.7365 93.9983 73.7734 93.7025 73.7734C93.362 73.7734 93.0279 73.7242 92.7 73.6259C92.3718 73.5272 92.0746 73.3844 91.8084 73.1971C91.4729 72.9115 91.2177 72.574 91.0425 72.1849C90.8674 71.7957 90.7798 71.3795 90.7798 70.9361C90.7798 70.8178 90.7823 70.7266 90.7873 70.6626C90.7921 70.5986 90.8268 70.3843 90.8909 70.0197C90.9549 69.6553 91.2115 69.2574 91.6604 68.8264C92.1092 68.3954 92.6418 68.1429 93.2584 68.0689C93.8949 68.0689 94.4485 68.1516 94.9195 68.3167C95.3905 68.4822 95.7569 68.794 96.0183 69.2529L95.5152 69.6893C95.2882 69.3516 95.012 69.0908 94.6866 68.9069C94.361 68.7232 94.0032 68.6314 93.6137 68.6314C93.436 68.6314 93.2536 68.6535 93.0662 68.6979C92.5729 68.8559 92.1832 69.1454 91.897 69.5672C91.611 69.9889 91.4681 70.4539 91.4681 70.962C91.4681 71.4799 91.5985 71.909 91.8601 72.2494C92.1215 72.5897 92.4077 72.8328 92.7184 72.9781C93.0292 73.1237 93.3595 73.1963 93.7099 73.1963C93.986 73.1963 94.2451 73.1509 94.4868 73.0601C94.7284 72.9692 94.9393 72.8366 95.1194 72.6622C95.2993 72.488 95.4375 72.2988 95.5337 72.0948C95.6299 71.8911 95.6928 71.6761 95.7224 71.4501L94.1019 71.4355V70.888H96.4179Z" fill="#2372A6"/>
</svg>